<svg id="Layer_1" data-name="Layer 1" xmlns="http://www.w3.org/2000/svg" viewBox="0 0 316.51 154.83"><defs><style>.cls-1{fill:#fdfdfd;}.cls-2{fill:#75787a;}.cls-3{fill:#b8babb;}.cls-4{fill:#b7e0e1;}.cls-5{fill:#e5e5e6;}.cls-6{fill:#7bc6c8;}.cls-7{fill:#6f7274;}.cls-8{fill:#707374;}.cls-9{fill:#77797b;}.cls-10{fill:#6e7173;}.cls-11{fill:#777a7c;}</style></defs><path class="cls-1" d="M331.31,428.17a8.47,8.47,0,0,1-7,7,9.15,9.15,0,0,1-2.5.29,14.84,14.84,0,0,1-7.35-2.25,2.05,2.05,0,0,1-.72-3c.61-1.07,1.46-1.27,2.76-.6a18.7,18.7,0,0,0,4,1.89,5.36,5.36,0,0,0,6.6-5.1,4.24,4.24,0,0,0-1.69-3.29,29.91,29.91,0,0,0-4.92-3.17,15.21,15.21,0,0,1-5-4.21,8,8,0,0,1,5-12.58c3.58-.78,6.58.62,9.34,2.7a1.59,1.59,0,0,1,.42,2.15,1.72,1.72,0,0,1-2.11.92,36,36,0,0,1-3.74-1.57,4.49,4.49,0,0,0-6,2.32,3.19,3.19,0,0,0,.5,3.87,13.83,13.83,0,0,0,3,2.36,64.24,64.24,0,0,1,6.21,4.06C330.78,422.1,332.06,424.77,331.31,428.17Z" transform="translate(-210.02 -291.43)"/><path class="cls-1" d="M369.8,407.4v35.79c0,1.26-.19,2.41-1.64,2.85v.22a.31.31,0,0,1-.06-.22.06.06,0,0,1,0,0,.28.28,0,0,1,0-.12,3.7,3.7,0,0,0,1.37-3.26q0-17.31,0-34.61a6.15,6.15,0,0,0-.59-3c-.59-1.07-1.36-1.15-2.17-.24a5.32,5.32,0,0,0-.36.47c-1.49,2-2.22,2.18-4.41.84a16.9,16.9,0,0,0-7.13-2.64,16,16,0,0,0-11.87,3.5c-4.07,3.18-5.71,7.66-5.79,12.64s2.28,8.94,6,12.14a15,15,0,0,0,8.21,3.6,14.76,14.76,0,0,0,5.68-.7,31.28,31.28,0,0,0,6.61-2.81c1.57-.87,1.9-.68,1.9,1.17,0,2.75,0,5.51,0,8.26,0,.68.08,1.35.13,2a3.66,3.66,0,0,0,1.23,2.63.42.42,0,0,1,0,.1s0,0,0,0a.41.41,0,0,1-.07.23V446a2.33,2.33,0,0,1-1.49-2.23c-.3-3.75-.09-7.5-.15-11.25,0-1.29,0-1.27-1.12-.66a30.89,30.89,0,0,1-8.64,3.43,14,14,0,0,1-12-2.92c-4.12-3.28-6.77-7.43-6.68-12.79.13-7.63,4-14.16,12.86-16.22a15.18,15.18,0,0,1,11.52,1.85l.41.25c2.76,1.7,2.91,1.67,4.76-.93.87-1.24,1.94-1.21,2.72.09A5.24,5.24,0,0,1,369.8,407.4Z" transform="translate(-210.02 -291.43)"/><path class="cls-2" d="M210.23,354.24a1.24,1.24,0,0,1,1.71-.85,8,8,0,0,1,3,1.4,1.93,1.93,0,0,0,2.6,0c.75-.53,1.57-1,2.34-1.46a8,8,0,0,1,8.62-.27c1.47.8,2.89,1.69,4.33,2.56a5.64,5.64,0,0,0,6.32-.07c1.46-.91,2.91-1.83,4.43-2.61,5.72-2.93,13,1.32,13.16,7.71.18,6.62.23,13.24.33,19.86,0,.2,0,.4,0,.6a1.75,1.75,0,0,1-1.86,1.89c-1.08,0-1.71-.61-1.76-1.83-.1-2.39-.18-4.78-.21-7.17,0-3.39.07-6.79-.1-10.18-.35-7.13-6.61-10.2-12.63-6.24a9.24,9.24,0,0,0-3.86,6.63,62.79,62.79,0,0,0-.58,9.3c-.05,2.51-.09,5-.14,7.53a1.86,1.86,0,0,1-1.58,2.07,1.83,1.83,0,0,1-2.23-1.16,5,5,0,0,1-.29-2c-.07-5.3-.14-10.61-.24-15.91a13.63,13.63,0,0,0-.34-2.61c-1-4.28-3.65-5.79-8.27-5.17s-7.2,3.79-7.72,8.82c-.54,5.25-.52,10.51-.92,15.76-.08,1-.33,1.92-1.5,2.14-1.43.28-2.3-.43-2.31-1.95-.06-4.63,0-9.26-.1-13.89a30.39,30.39,0,0,1,.24-7.5,3.13,3.13,0,0,0-.67-2.78v-.72C210.33,355.56,210,354.87,210.23,354.24Z" transform="translate(-210.02 -291.43)"/><path class="cls-3" d="M210.23,354.24c0,.65.3,1.34-.21,1.94v-1.91A.39.39,0,0,1,210.23,354.24Z" transform="translate(-210.02 -291.43)"/><path class="cls-4" d="M526.31,332.45l.23,0v1.67h-.23A1.22,1.22,0,0,1,526.31,332.45Z" transform="translate(-210.02 -291.43)"/><path class="cls-5" d="M368.16,446v.22H367V446l.06,0a.76.76,0,0,1,1.09,0Z" transform="translate(-210.02 -291.43)"/><path class="cls-6" d="M526.31,332.45v1.7a9.2,9.2,0,0,1-2,3.08c-7.49,8-14.73,16.17-22,24.32q-7.93,8.88-15.86,17.77a10.65,10.65,0,0,1-8.55,3.76c-15.55-.1-31.11,0-46.67,0h-1.68c1.74-2,3.28-3.81,4.86-5.59q11.53-13,23.1-25.91c3-3.36,6.12-6.63,9.18-9.94.68-.74,1.35-1.47,2-2.25,2.39-3,2.32-5.53-.3-8.33-2.4-2.56-4.92-5-7.31-7.59-4.55-4.88-8.89-9.94-13.23-15-2.35-2.72-4.72-5.41-7.09-8.11a8.85,8.85,0,0,1-2.12-7.53l2.29,2.46c4.27,4.64,8.59,9.24,12.8,13.93,4,4.49,7.95,9.06,11.87,13.63,2.38,2.76,5,5.32,7.51,7.89a6.31,6.31,0,0,1,2.18,5,6.47,6.47,0,0,1-1.92,4c-2.92,3.23-5.9,6.39-8.85,9.59q-7.9,8.6-15.59,17.38c-3.51,4-7.08,7.91-10.61,11.87-.25.28-.78.49-.58.93s.65.16,1,.16c4,0,8,.05,12,0,2.27,0,4.54-.25,6.82-.17,4.43.14,8.86.25,13.29.45,7.87.34,13.9-2.95,18.76-9,4.55-5.66,9.43-11.05,14.32-16.42q8-8.81,16-17.66c2-2.22,1.94-4.69-.11-7-2.88-3.22-5.81-6.37-8.66-9.6-5.47-6.19-10.88-12.43-16.36-18.62a42.78,42.78,0,0,0-4.84-5,10.57,10.57,0,0,0-7.52-2.2c-4.23.2-8.34,1.38-12.57,1.58-1.08.05-.39.66-.18.91,1.12,1.35,2.29,2.66,3.44,4,7.69,8.86,15.43,17.68,23.39,26.3,1.52,1.64,3,3.3,4.53,4.94s1.55,2.9.07,4.59c-5.3,6-10.54,12.09-15.87,18.08a106.67,106.67,0,0,1-9.25,9c-.68.6-1.12.37-1.52-.3a2.38,2.38,0,0,1,.38-3.07c3.05-3.37,6.14-6.71,9.15-10.12,2.89-3.25,5.74-6.54,8.38-10,.32-.41.61-.84.89-1.27,2.57-3.92,2.58-6-.06-9.87a86.69,86.69,0,0,0-7.21-8.47q-11.21-12.54-22.47-25c-1.22-1.36-2.47-2.7-3.7-4,.21-.4.52-.29.78-.29,8.83,0,17.67,0,26.51,0a6.77,6.77,0,0,1,5.4,2.35q10,11.24,19.95,22.47c3.88,4.35,7.82,8.64,11.72,13A8.24,8.24,0,0,1,526.31,332.45Z" transform="translate(-210.02 -291.43)"/><path class="cls-7" d="M328.64,356.29c0-.63,0-1.27-.1-1.9-.27-2.14-1.29-3-3.43-3a7.38,7.38,0,0,0-3.68.9c-1.72,1-3.21.75-5,0-7.3-3.24-15-.62-18.52,6.25a17.93,17.93,0,0,0-1.53,11.75c1.75,9.55,12,15.58,21.26,10.72a2.68,2.68,0,0,1,.9-.31c.95-.11,2,.89,1.71,1.6a8,8,0,0,1-8.28,5.08c-3-.27-5.74-1.35-8.6-2.05a11.78,11.78,0,0,0-5.69-.12c-.64.16-1,.38-.58,1.14a17.19,17.19,0,0,0,8.16,7.46c4.78,1.93,9.57,1.34,14.29-.21a11.76,11.76,0,0,0,8-8.77,38.72,38.72,0,0,0,.86-7.59C328.89,370.24,328,363.26,328.64,356.29Zm-12,18.26a10,10,0,0,1-4.32.8c-5.75,0-9-4.05-8-10.45.47-3.17,2-5.48,5.2-6.31,3.44-.89,6.76-.79,9.38,2.11C321.89,364.08,321.71,372.3,316.61,374.55Z" transform="translate(-210.02 -291.43)"/><path class="cls-8" d="M404.36,353.31c-.75-2.06-1.71-2.54-3.78-1.88-1.22.38-2.4.87-3.62,1.26a3.35,3.35,0,0,1-2.79-.09,14,14,0,0,0-5.6-1.58c-4.41-.48-8.34.48-11.38,4-6,6.84-6.34,15.64-.9,22.92a13.55,13.55,0,0,0,16.39,4.35,6.36,6.36,0,0,1,6.2,0c4.05,1.95,6.21.48,6.21-4,0-5.55,0-11.09.25-15.44C405.38,358.78,405.33,356,404.36,353.31Zm-8.49,19.3a7.44,7.44,0,0,1-7.52,3.62c-3.56-.48-6.3-2-7.3-5.7a12.65,12.65,0,0,1-.06-6.38c1.07-4.42,4.51-6.63,9.2-6,4.21.6,6.67,3.28,7,7.64,0,.48,0,1,.07,1.44A9.67,9.67,0,0,1,395.87,372.61Z" transform="translate(-210.02 -291.43)"/><path class="cls-7" d="M351.18,351c-9.28,0-16.32,6.83-16.37,16A15.93,15.93,0,0,0,351,383.29a16.18,16.18,0,1,0,.16-32.34Zm5.14,23.66a6.91,6.91,0,0,1-5,1.49c-3.51,0-6.36-1.25-7.8-4.66-1.59-3.75-.81-8.74,1.73-11.1s5.56-2.64,8.74-1.79,4.8,3.31,5.54,6.34C360.43,368.74,359.15,372,356.32,374.61Z" transform="translate(-210.02 -291.43)"/><path class="cls-2" d="M369.13,404.65c-.78-1.3-1.85-1.33-2.72-.09-1.85,2.6-2,2.63-4.76.93l-.41-.25a15.18,15.18,0,0,0-11.52-1.85c-8.83,2.06-12.73,8.59-12.86,16.22-.09,5.36,2.56,9.51,6.68,12.79a14,14,0,0,0,12,2.92,30.89,30.89,0,0,0,8.64-3.43c1.11-.61,1.1-.63,1.12.66.06,3.75-.15,7.5.15,11.25A2.33,2.33,0,0,0,367,446h1.2c1.45-.44,1.64-1.59,1.64-2.85V407.4A5.24,5.24,0,0,0,369.13,404.65ZM366,419.51a12.34,12.34,0,1,1-24.68-.32,12.27,12.27,0,0,1,12.27-12.25A12.49,12.49,0,0,1,366,419.51Z" transform="translate(-210.02 -291.43)"/><path class="cls-2" d="M486,394.09a1.81,1.81,0,0,0-1.72-1.82,2.17,2.17,0,0,0-2.31,1.68,8.64,8.64,0,0,0-.21,1.9c0,3.43-.17,6.86.1,10.29,0,.42,0,.82-.38,1.05s-.7-.05-1-.24-.38-.29-.57-.43a18.68,18.68,0,0,0-11.6-3.55c-9.09.41-16.79,10.36-14.76,19.22,2.58,11.18,13.09,16.5,23.32,11.35,2.58-1.29,5-1.36,7.14.81.61.61,1,.38,1.41-.25a5.33,5.33,0,0,0,.64-2.88c0-6,0-12,0-18V396.49C486,395.69,486,394.89,486,394.09Zm-16.2,37.76a12.44,12.44,0,0,1-12.18-12.54A12.28,12.28,0,0,1,470,406.94a12.53,12.53,0,0,1,12.32,12.72C482.42,426.3,476.55,431.9,469.76,431.85Z" transform="translate(-210.02 -291.43)"/><path class="cls-9" d="M445.87,419.05c0-3.75,0-7.5,0-11.25a5.76,5.76,0,0,0-.81-3.08c-.75-1.2-1.75-1.24-2.58-.11-.37.52-.66,1.1-1,1.61-.79,1.09-1.47,1.16-2.49.3a9.91,9.91,0,0,0-1.47-1.22,16.7,16.7,0,0,0-12.61-1.72,16.05,16.05,0,0,0-11.59,18.77c2.77,13.92,17.29,15.85,24.65,10.61a5,5,0,0,1,5-.66c2.23.79,2.88.28,3-2.11,0-.28,0-.56,0-.84v-10.3Zm-16.18,12.8a12.44,12.44,0,0,1-12.34-12.49,12.3,12.3,0,0,1,12.23-12.42c6.86,0,12.16,5.42,12.21,12.53A12.15,12.15,0,0,1,429.69,431.85Z" transform="translate(-210.02 -291.43)"/><path class="cls-10" d="M412.22,361.42c0-5.79,0-11.57,0-17.36,0-3.47,2-5,5.43-4.07a2.37,2.37,0,0,1,1.87,2.08,21.2,21.2,0,0,1,.23,2.86q0,16.63,0,33.28c0,.24,0,.48,0,.71-.2,3.88-2.61,4.43-5.65,3.53-1.45-.43-1.82-1.78-1.82-3.2V361.42Z" transform="translate(-210.02 -291.43)"/><path class="cls-11" d="M405.36,415.13c0,2.5-.07,6-.25,9.43-.31,6.09-4.69,10.46-11,10.88a22.5,22.5,0,0,1-6.45-.29c-5.54-1.22-8.15-5.06-9.2-10.27a46.56,46.56,0,0,1-.58-11.43c.1-2.31.05-4.63.08-6.94a2.26,2.26,0,0,1,1.28-2.37,2.11,2.11,0,0,1,3.05,1.95c0,.44,0,.88,0,1.32-.15,5.18.14,10.35.24,15.53.13,6.75,5.55,9.13,10.6,8.56s7.89-3.93,8.09-9.31q.27-7.41.2-14.83c0-.52,0-1,0-1.56a1.71,1.71,0,0,1,1.55-1.7,1.79,1.79,0,0,1,2,1.12,3.06,3.06,0,0,1,.26,1.4Z" transform="translate(-210.02 -291.43)"/><path class="cls-9" d="M277.65,375.85c1.54-3.52,3.08-7,4.62-10.51,1.48-3.35,3-6.71,4.47-10a7.3,7.3,0,0,1,.95-1.65,2.25,2.25,0,0,1,3-.35,1.64,1.64,0,0,1,.56,2.48c-3.94,7.58-6.85,15.62-10.46,23.35-2.11,4.51-4,9.11-6.06,13.66a3.07,3.07,0,0,1-2.7,2.23c-1.3.06-1.51-.23-.91-1.42a22.79,22.79,0,0,0,2.41-12.4,33.36,33.36,0,0,0-2.95-10.8,129.77,129.77,0,0,0-6.9-14.06c-.87-1.46-.63-2.43.65-3.12s2.48-.42,3.21,1.14c3.13,6.77,6.21,13.56,9.32,20.34A2.35,2.35,0,0,0,277.65,375.85Z" transform="translate(-210.02 -291.43)"/><path class="cls-11" d="M331.31,428.17a8.47,8.47,0,0,1-7,7,9.15,9.15,0,0,1-2.5.29,14.84,14.84,0,0,1-7.35-2.25,2.05,2.05,0,0,1-.72-3c.61-1.07,1.46-1.27,2.76-.6a18.7,18.7,0,0,0,4,1.89,5.36,5.36,0,0,0,6.6-5.1,4.24,4.24,0,0,0-1.69-3.29,29.91,29.91,0,0,0-4.92-3.17,15.21,15.21,0,0,1-5-4.21,8,8,0,0,1,5-12.58c3.58-.78,6.58.62,9.34,2.7a1.59,1.59,0,0,1,.42,2.15,1.72,1.72,0,0,1-2.11.92,36,36,0,0,1-3.74-1.57,4.49,4.49,0,0,0-6,2.32,3.19,3.19,0,0,0,.5,3.87,13.83,13.83,0,0,0,3,2.36,64.24,64.24,0,0,1,6.21,4.06C330.78,422.1,332.06,424.77,331.31,428.17Z" transform="translate(-210.02 -291.43)"/></svg>